<svg id="Layer_1" data-name="Layer 1" xmlns="http://www.w3.org/2000/svg" viewBox="0 0 306.52979 348.26525"><defs><style>.cls-1{fill:#55abe0;}.cls-2{fill:#3b7b9b;}.cls-3{fill:#407c9b;}.cls-4{fill:#ebebeb;}</style></defs><path class="cls-1" d="M230.31361,173.67895c4.354-8.56518,10.79524-13.45758,19.35643-14.98519,14.24947-2.54259,25.16738,2.98028,31.81537,15.74247,1.40659,2.70021,3.15807,3.363,5.908,3.34292,12.3275-.09016,24.65762-.16688,36.98384-.01312,28.41447.35444,50.60045,19.95823,53.98016,47.535,3.21025,26.19444-15.25911,51.66256-41.41757,57.17078-9.40857,1.98116-18.92945,1.04976-28.39059.99668-4.85193-.02723-6.78627,1.01067-6.42,6.32644,1.04157,15.1154-2.205,29.08588-12.43739,40.87887C275.61555,346.897,257.73655,352.764,237.16261,348.08c-18.6763-4.252-31.08156-16.57389-37.76557-34.53519-3.87906-10.42387-3.2702-21.309-2.93623-32.10191a8.58913,8.58913,0,0,1,8.84723-8.41576c4.8386.03689,8.418,3.61852,8.78634,9.06.49337,7.28959-.6222,14.6303.88872,21.90316,3.59068,17.28385,19.21116,28.90554,37.37282,27.6794C268.99942,330.546,283.4805,315.782,284.26,298.78455c.366-7.98062.12679-15.9885.18634-23.98383.05684-7.6331,1.34293-8.89239,9.11527-8.916,10.9952-.03346,21.99732.19974,32.98415-.11377,20.04173-.57189,35.33767-16.82661,34.54459-36.34748-.73838-18.17589-16.11595-33.27232-34.94744-33.78381-13.15167-.3572-26.32326.05946-39.47954-.19789-3.42123-.06691-4.07758,2.09324-5.23318,4.22779-8.18164,15.11221-25.35451,20.34533-40.09457,12.25419-3.89048-2.13558-6.78216-5.33733-9.47707-8.737-.579-.73041-1.21762-1.93292-.99659-2.66768.4315-1.43445,1.9816-.78722,3.03967-.79823,5.497-.0572,11.00349-.19016,16.48928.07055,3.09749.14722,5.09063-.844,6.26505-3.656a15.04,15.04,0,0,1,.97674-1.74009c4.09461-6.99726,3.22065-13.7157-2.53928-19.2899-1.744-1.6878-4.06376-1.31628-6.13552-1.37093C242.997,173.57719,237.02932,173.67895,230.31361,173.67895Zm10.45-7.3409c8.99791-4.21022,18.07892-3.99639,27.21454-.87653C263.33537,158.71486,246.64718,159.82411,240.7636,166.33805Z" transform="translate(-96.7351 -94.95145)"/><path class="cls-2" d="M240.77238,253.29c-2.06557,4.26549-1.88214,5.90313-.12172,9.63964,2.94281,6.24612,6.82517,9.02759,13.85856,8.07292,4.73225-.64231,9.62231-.12233,15.2276-.12233-2.92039,6.77895-7.76542,10.78819-13.76084,13.38009a28.36241,28.36241,0,0,1-37.30711-13.61016c-1.61331-3.24855-3.3842-4.14523-6.77859-4.0943q-18.98909.28482-37.98524.05729c-32.34237-.36857-55.01644-24.28854-53.72639-56.53939.96158-24.03888,22.0378-46.01013,46.48982-48.63645a183.03454,183.03454,0,0,1,24.46229-.48251c4.10256.1088,5.51383-.98172,5.27677-5.21746-.73045-13.0521,1.27327-25.50824,8.66615-36.74028,11.53671-17.52777,33.01759-26.99377,53.198-23.22524,21.39277,3.99494,38.64575,20.82586,42.77044,41.76343a20.10649,20.10649,0,0,1,.15,2.98057q.04151,12.618.08305,25.23622c-1.49129,4.505-4.873,6.29668-9.26577,5.62955-4.46592-.67827-7.0768-3.77162-7.36709-8.23542-.32344-4.97471-.08758-9.98328-.19531-14.97494-.41786-19.35686-14.07785-34.05682-32.93155-35.48915-17.34832-1.318-33.71356,11.67675-36.8393,29.85891-1.46721,8.53475-.41731,17.27965-.50749,25.92843-.09882,9.47842-.629,9.893-10.30519,10.10957-12.79462.28639-25.67772-1.32814-38.372.939-16.54934,2.95566-28.79858,19.0283-27.82688,35.83486,1.00928,17.45648,14.78934,31.972,31.49053,33.1712,2.54319,1.50091,5.45278.13437,8.07322,1.03114,3.30921,3.22078,6.61789,2.79708,9.92624.04457l15.57591.74527c1.03688,1.24628,2.60216,1.25,4.14466,1.10156,2.25214-.21667,4.7396-1.4217,6.68072-.80355,6.18622,1.97,6.05046-1.48213,5.51663-5.65823a9.483,9.483,0,0,1,4.03823-5.80463c1.203,3.13911,1.16912,6.41872,1.13269,9.70483-.01092.98617.04024,2.07419,1.329,2.2556a1.623,1.623,0,0,0,1.21141-.57152c1.96031-2.36952-.124-10.9186-2.94489-12.2263.43751-1.90462,2.61552-2.25884,3.41889-3.83758,9.13543-5.90513,18.73514-7.0153,28.85137-2.79316-9.54808,2.71191-11.73284,5.52986-9.90341,12.774q-1.81476,2.42482-3.62957,4.84963c-.125-4.98759-.23964-9.97549-.38431-14.96252-.02755-.9501.19748-2.20438-1.15881-2.37024a1.5057,1.5057,0,0,0-1.61557,1.55158c.44066,3.54954-2.20669,3.80171-4.51637,4.64622a6.67238,6.67238,0,0,0-4.56616,6.03065c-.19593,2.90586,1.70474,4.98043,3.92348,6.57624,2.58105,1.85636,5.11628-.45788,7.70041-.3283C241.95892,250.47932,240.78825,253.21724,240.77238,253.29Zm16.35514,26.22358c-7.72338,2.97616-15.67472,2.36-23.65818,1.23763C241.62285,284.55351,249.539,284.61534,257.12752,279.51361Z" transform="translate(-96.7351 -94.95145)"/><path class="cls-3" d="M160.26621,418.80523c.00079,5.82984-.02519,11.65986.01133,17.48949.01931,3.08186.21671,6.65-3.94075,6.73335-4.149.0831-4.1645-3.39082-4.15245-6.54245.04325-11.32619.023-22.65259.02313-33.97893a37.73527,37.73527,0,0,0-.05576-3.99472c-.3818-3.57336-2.16331-6.05286-5.98009-6.06576-4.01933-.01358-6.12813,2.35957-6.15319,6.3167-.076,11.992-.04691,23.98456-.06784,35.97691a33.51566,33.51566,0,0,1-.12409,4.4878c-.30046,2.18427-1.52684,3.88865-3.84453,3.89206-2.504.00369-3.94352-1.60075-4.0999-4.13052-.11289-1.8261-.09215-3.66184-.09256-5.49327-.00249-11.15975-.10133-22.32088.03873-33.47895.16517-13.15781,10.88174-19.422,22.32056-13.037,1.77008.98808,2.742.73473,4.36852-.17418,10.76432-6.0151,21.60336-.22221,21.95422,12.01195.37227,12.981.09271,25.98079.093,38.97237.00006,2.75131-.76377,5.31253-3.94056,5.30692-3.47761-.00611-4.12673-2.77995-4.12128-5.67689q.02818-14.99059.07419-29.98117c.00557-2.33191.03895-4.66459-.00837-6.99555-.10852-5.3459-2.15524-8.01484-6.10226-8.03555-4.04633-.02123-6.1505,2.60985-6.1901,7.90889C160.23012,406.47925,160.26543,412.64236,160.26621,418.80523Z" transform="translate(-96.7351 -94.95145)"/><path class="cls-3" d="M188.57546,418.51378c.00221-5.66306-.06949-11.32719.01785-16.98892.15855-10.27719,6.35415-17.05447,15.52789-17.11378,9.22034-.0596,15.57536,6.69535,15.66938,16.94045.10852,11.82477.00852,23.65135.03732,35.47707.00741,3.03686-.34624,6.18629-4.07444,6.22617-3.77669.04042-4.14568-3.13363-4.11093-6.15811a55.33962,55.33962,0,0,0-.04146-6.491c-.30672-2.86774,1.64724-7.16333-1.275-8.286-3.49009-1.34078-7.84731-.56-11.82151-.44438-1.78544.052-1.70232,1.76259-1.71375,3.08464q-.04968,5.74593-.02107,11.49248c.01122,3.0868.08861,6.7533-3.966,6.7907-4.39881.04061-4.23956-3.79923-4.23355-7.04054Q188.58642,427.25817,188.57546,418.51378Zm23.18422-13.60557a45.34763,45.34763,0,0,0-.03646-5.47521c-.53815-4.39434-3.53881-7.16385-7.587-7.03524-4.545.14435-6.99466,2.74206-7.45586,7.11938a71.7646,71.7646,0,0,0-.11516,7.46969c-.00222,6.50249.00666,6.57851,6.444,6.50069C212.76351,413.36965,211.74885,415.227,211.75968,404.90821Z" transform="translate(-96.7351 -94.95145)"/><path class="cls-3" d="M228.182,413.45577c-.0014-7.82052.08463-15.64237-.03685-23.461-.063-4.05651,1.72262-5.793,5.71572-5.64116,3.15732.12,6.32375-.02239,9.48369.05372A16.107,16.107,0,0,1,258.15414,393.74c3.082,6.057,2.30728,12.05814-1.8121,17.328-1.89341,2.42221-2.08615,4.09434-.83839,7.00876,2.76773,6.46469,2.63441,13.62726,3.64794,20.50692a3.7104,3.7104,0,0,1-3.63235,4.48127c-2.48794.18719-3.92748-1.51094-4.2904-3.96622-.68023-4.6018-1.36257-9.20394-1.96983-13.81569-.745-5.65782-2.80552-7.48556-8.36463-7.74648-3.24633-.15237-4.93924.6214-4.743,4.37195.2778,5.30987.0248,10.64585.07666,15.96988.02783,2.85694-.90779,5.19187-4.0068,5.20487-3.09553.013-4.06507-2.30479-4.05149-5.16766C228.20854,429.76249,228.1834,421.60907,228.182,413.45577Zm8.02944-12.84949h.02672c0,2.15851.02081,4.31728-.00778,6.47543-.0173,1.30817.32336,2.38471,1.81946,2.43709,2.81144.09841,5.69.4981,8.40035-.46469A8.60957,8.60957,0,0,0,251.558,398.899c-1.35107-5.14883-6.02627-7.62165-12.80373-6.50194-4.962.81975-1.50052,4.86568-2.52626,7.22013A2.68251,2.68251,0,0,0,236.21144,400.60628Z" transform="translate(-96.7351 -94.95145)"/><path class="cls-3" d="M381.99485,413.87943c-.48087-1.06605-.92344-2.13561-1.43646-3.17018-3.17751-6.40764-6.31561-12.83579-9.58485-19.19649-1.39772-2.71939-1.81967-5.35123,1.29133-6.7947,2.84269-1.319,4.62666.64279,5.84572,3.13592q3.17829,6.5,6.45667,12.95092c1.34973,2.66284,2.73338,2.63355,4.07252-.04262,2.15757-4.31181,4.39023-8.58742,6.46939-12.93655,1.21974-2.5514,2.92884-4.417,5.79853-3.05657,3.16451,1.50008,2.60466,4.16072,1.25936,6.81624-3.156,6.22967-6.13765,12.55035-9.413,18.71569a6.43378,6.43378,0,0,0-.04011,6.87813c3.26222,5.98591,6.17221,12.16366,9.2272,18.26262,1.338,2.67129,2.53633,5.52817-1.03733,7.25223-3.296,1.59013-4.74683-.8944-5.98688-3.45431q-2.9367-6.06235-6.03444-12.04594c-.51348-.99219-.82267-2.46748-2.14131-2.55927-1.68842-.11744-1.91912,1.5996-2.48993,2.709-2.12907,4.13809-4.13563,8.3393-6.26947,12.47482-1.22,2.36449-2.82963,4.41084-5.87568,2.85521-2.96246-1.51287-2.5147-3.87281-1.24179-6.3798,3.16207-6.22775,6.26258-12.48677,9.37889-18.73771C380.83555,416.368,381.38646,415.15929,381.99485,413.87943Z" transform="translate(-96.7351 -94.95145)"/><path class="cls-3" d="M111.033,384.40654a14.07668,14.07668,0,0,1,13.78174,12.0453c.43642,2.7999-.08251,5.21039-3.13258,5.82294-2.82082.56658-4.22044-1.20659-4.64625-3.92967-.47536-3.04007-2.00191-5.30154-5.23421-5.87538a5.54237,5.54237,0,0,0-6.01,2.66033c-1.7679,2.889-1.053,5.73076.74428,8.40531,2.45481,3.65308,6.01315,6.18492,9.20328,9.08887,4.24233,3.86174,7.97591,8.06063,9.14694,13.91832,1.53617,7.68406-4.0983,15.25861-12.23021,16.51211-7.55364,1.1644-15.06863-4.88318-15.72717-12.56383-.22545-2.62937.31257-4.80384,3.176-5.32973,2.92132-.5365,4.27508,1.34133,4.65183,3.9502.45428,3.14568,2.008,5.31814,5.19026,5.88356a5.78764,5.78764,0,0,0,6.03268-2.64563c2.06058-2.96639,1.021-5.73353-.73739-8.3255-2.64654-3.90124-6.47524-6.65834-9.83463-9.86994-3.75146-3.58643-7.25761-7.31574-8.36167-12.68736A14.02173,14.02173,0,0,1,111.033,384.40654Z" transform="translate(-96.7351 -94.95145)"/><path class="cls-3" d="M322.0958,413.69883c.00412-7.9875.079-15.976-.02864-23.96207-.051-3.783,1.5224-5.49889,5.34676-5.42851,5.82269.10717,11.64913.06748,17.47328.01473,2.68759-.02431,4.84339.89415,4.849,3.7647.00594,3.02119-2.09925,4.2542-5.05142,4.2056-3.66021-.06025-7.32956.13011-10.981-.058-2.89416-.14911-3.954,1.02679-3.6009,3.78126a13.82272,13.82272,0,0,1,.00873,1.49649c.06574,3.65521-1.11909,8.08091.53016,10.76458,1.93154,3.143,6.73618.8447,10.26267,1.24228,2.63447.297,4.76456,1.21971,4.83622,3.98144.08152,3.14025-2.16386,3.97049-5.05929,4.07525-10.60186.38351-10.59783.44758-10.58111,11.3491.00485,3.16169.04234,6.32427-.019,9.48481-.05275,2.71643-1.47646,4.63328-4.1965,4.57944-2.80028-.05546-3.83343-2.09787-3.81393-4.82938C322.129,430.007,322.09172,421.85281,322.0958,413.69883Z" transform="translate(-96.7351 -94.95145)"/><path class="cls-2" d="M285.1648,416.3977c-.00186,6.98329-.03868,13.96685.01562,20.94974.02288,2.94553-.60991,5.70925-4.02,5.70354-3.41181-.00573-4.00424-2.76454-3.99365-5.7162.04838-13.46763-.10712-26.93748.10534-40.40193.05824-3.691-.89666-5.06714-4.71394-4.79765-3.32993.23514-8.11908.97054-8.01361-4.075.10827-5.18071,5.01182-3.64124,8.23647-3.7172,6.64743-.15662,13.30185.01083,19.952-.0698,2.68024-.03249,4.90429.82353,5.02967,3.60708.13775,3.05858-2.21309,4.09843-5.00941,4.34787-7.58945.67695-7.58665.70846-7.58668,8.20769Q285.16666,408.41679,285.1648,416.3977Z" transform="translate(-96.7351 -94.95145)"/><path class="cls-2" d="M363.4451,413.89834c-.003,7.96731-.0364,15.9348.01492,23.90177.01809,2.81082-.75522,5.2689-3.88307,5.25856-3.14669-.0104-3.93267-2.62455-3.9362-5.3243q-.03177-24.15062.02373-48.3013c.009-2.72128.91917-5.11741,4.2318-4.94362,3.045.15973,3.554,2.48713,3.553,5.00909Q363.4446,401.69843,363.4451,413.89834Z" transform="translate(-96.7351 -94.95145)"/><path class="cls-2" d="M262.20109,235.59239c-.957-.67712,1.00652.87458,1.00652.87458-.23629,2.66306-1.36,5.32535-.00736,7.98991l-13.99154.00914c-.00791-7.95224-.00421-7.92552,8.14527-9.05516a17.337,17.337,0,0,0,3.23676-1.11356A7.51974,7.51974,0,0,0,262.20109,235.59239Z" transform="translate(-96.7351 -94.95145)"/><path class="cls-2" d="M260.59074,234.2973a17.337,17.337,0,0,1-3.23676,1.11356c-8.14948,1.12964-8.15318,1.10292-8.14527,9.05516q-1.50139.01-3.00289.02c-1.82943-7.24408.35533-10.062,9.90341-12.77394A8.68669,8.68669,0,0,1,260.59074,234.2973Z" transform="translate(-96.7351 -94.95145)"/><path class="cls-3" d="M301.27515,165.75207q-.0415-12.61815-.08305-25.23622A67.50032,67.50032,0,0,1,301.27515,165.75207Z" transform="translate(-96.7351 -94.95145)"/><path class="cls-4" d="M240.7636,166.33805c5.88358-6.51394,22.57177-7.62319,27.21454-.87605C258.84252,162.34166,249.76151,162.12783,240.7636,166.33805Z" transform="translate(-96.7351 -94.95145)"/><path class="cls-2" d="M242.57625,249.33569q-.30847.57172-.61714,1.14355c-2.58432-.1295-5.11955,2.18474-7.7006.32838-2.21874-1.59581-4.11941-3.67038-3.92348-6.57624a6.67238,6.67238,0,0,1,4.56616-6.03065c2.30968-.84451,4.957-1.09668,4.51637-4.64622a1.5057,1.5057,0,0,1,1.61557-1.55158c1.35629.16586,1.13126,1.42014,1.15881,2.37024C242.33661,239.3602,242.45123,244.3481,242.57625,249.33569Zm-3.37239-5.36486c-.02655-1.65358.17322-3.57446-2.33446-3.38383-2.40148.18256-2.68585,2.00928-2.65354,3.95168.03188,1.91553.24528,3.94671,2.76593,3.681C239.4359,247.96105,239.1541,245.762,239.20386,243.97083Z" transform="translate(-96.7351 -94.95145)"/><path class="cls-4" d="M257.12752,279.51361c-7.58851,5.10173-15.50467,5.0399-23.65818,1.23763C241.4528,281.87365,249.40414,282.48977,257.12752,279.51361Z" transform="translate(-96.7351 -94.95145)"/><path class="cls-2" d="M223.11072,239.18023q.36508-.41836.72923-.83707c2.81992,1.30738,4.90422,9.85646,2.94391,12.226a1.623,1.623,0,0,1-1.21141.57152c-1.2888-.18141-1.34-1.26943-1.329-2.2556C224.27984,245.599,224.31373,242.31934,223.11072,239.18023Z" transform="translate(-96.7351 -94.95145)"/><path class="cls-2" d="M202.23881,249.57319a84.93407,84.93407,0,0,1,9.84071-.20666c3.65267.32127,5.78511-1.12366,6.99273-4.37992.53407,4.17435.66983,7.62647-5.51639,5.65648-1.94112-.61815-4.42858.58688-6.68072.80355C205.06343,251.62093,203.22029,251.58545,202.23881,249.57319Z" transform="translate(-96.7351 -94.95145)"/><path class="cls-2" d="M177.22833,249.55524q4.99068-.0008,9.98131-.00154C183.88292,252.34751,180.55589,252.79389,177.22833,249.55524Z" transform="translate(-96.7351 -94.95145)"/><path class="cls-2" d="M263.20025,244.45688c-1.35265-2.66456-.22893-5.32685.00736-7.98991a29.48552,29.48552,0,0,1,2.83005,2.62293c1.30043,1.54632,3.84527,3.14291,2.68777,5.16268C267.73277,245.98477,265.10473,244.49953,263.20025,244.45688Z" transform="translate(-96.7351 -94.95145)"/><path class="cls-2" d="M239.20773,243.97175c-.05363,1.79025.22817,3.9893-2.22594,4.248-2.52065.26569-2.734-1.76549-2.76593-3.681-.03231-1.9424.25206-3.76912,2.65354-3.95168C239.37708,240.39637,239.17731,242.31725,239.20773,243.97175Z" transform="translate(-96.7351 -94.95145)"/></svg>